<svg width="475.8" height="93.5" viewBox="0 0 475.8 93.5" xmlns="http://www.w3.org/2000/svg">
  <g id="svgGroup" stroke-linecap="round" fill-rule="evenodd" font-size="9pt" stroke="#000"
    stroke-width="0.7mm" fill="#000" style="stroke:#000;stroke-width:1.1mm;fill:#000">
    <path
      d="M 252.9 57.3 L 251.1 8 L 254 4.3 L 227.8 64.7 A 0.453 0.453 0 0 1 227.531 65.009 Q 227.346 65.094 227.042 65.1 A 2.356 2.356 0 0 1 227 65.1 A 1.883 1.883 0 0 1 226.69 65.077 Q 226.533 65.05 226.412 64.994 A 0.634 0.634 0 0 1 226.1 64.7 L 201.7 11.2 A 14.434 14.434 0 0 0 199.456 7.61 Q 196.392 4.1 191.4 4.1 A 0.133 0.133 0 0 1 191.285 4.028 Q 191.215 3.915 191.203 3.627 A 3.028 3.028 0 0 1 191.2 3.5 Q 191.2 3.056 191.31 2.94 A 0.121 0.121 0 0 1 191.4 2.9 A 50.877 50.877 0 0 1 193.353 2.939 A 61.48 61.48 0 0 1 194.6 3 A 78.32 78.32 0 0 0 195.413 3.044 Q 196.575 3.1 197.4 3.1 A 34.675 34.675 0 0 0 198.912 3.068 A 27.643 27.643 0 0 0 200 3 Q 200.919 2.923 201.486 2.906 A 10.017 10.017 0 0 1 201.8 2.9 Q 203.2 2.9 204 3.8 A 4.939 4.939 0 0 1 204.388 4.313 Q 205.15 5.444 206.4 8.1 L 229.3 57.6 L 226.7 61.8 L 251.3 5.4 A 5.219 5.219 0 0 1 252.062 4.181 A 4.593 4.593 0 0 1 252.65 3.6 Q 253.267 3.092 253.858 2.952 A 1.922 1.922 0 0 1 254.3 2.9 A 7.103 7.103 0 0 1 254.581 2.906 Q 254.904 2.919 255.359 2.959 A 33.781 33.781 0 0 1 255.8 3 Q 256.659 3.086 257.74 3.098 A 32.18 32.18 0 0 0 258.1 3.1 Q 260.7 3.1 262.3 3 A 51.175 51.175 0 0 1 264.378 2.914 A 60.84 60.84 0 0 1 265.7 2.9 A 0.133 0.133 0 0 1 265.815 2.972 Q 265.885 3.085 265.897 3.373 A 3.028 3.028 0 0 1 265.9 3.5 Q 265.9 3.945 265.79 4.06 A 0.121 0.121 0 0 1 265.7 4.1 A 30.578 30.578 0 0 0 263.182 4.196 Q 260.738 4.399 259.183 5.029 A 6.709 6.709 0 0 0 258.5 5.35 A 3.752 3.752 0 0 0 256.821 7.285 Q 256.296 8.547 256.296 10.455 A 14.491 14.491 0 0 0 256.3 10.8 L 258.2 57.3 Q 258.289 59.871 258.81 61.342 A 5.626 5.626 0 0 0 258.95 61.7 A 3.262 3.262 0 0 0 260.579 63.364 A 4.989 4.989 0 0 0 261.5 63.7 A 11.325 11.325 0 0 0 262.719 63.942 Q 264.059 64.14 265.974 64.186 A 50.753 50.753 0 0 0 267.2 64.2 Q 267.466 64.2 267.496 64.673 A 2.02 2.02 0 0 1 267.5 64.8 Q 267.5 65.4 267.2 65.4 Q 264.8 65.4 261.85 65.3 Q 258.9 65.2 255.6 65.2 Q 252.5 65.2 249.9 65.3 A 144.542 144.542 0 0 1 247.43 65.375 Q 246.252 65.4 245.2 65.4 A 0.133 0.133 0 0 1 245.085 65.328 Q 245.015 65.215 245.003 64.927 A 3.028 3.028 0 0 1 245 64.8 Q 245 64.356 245.11 64.24 A 0.121 0.121 0 0 1 245.2 64.2 A 30.178 30.178 0 0 0 247.218 64.138 Q 250.239 63.934 251.443 63.066 A 2.496 2.496 0 0 0 251.65 62.9 Q 253.034 61.659 252.915 57.685 A 23.386 23.386 0 0 0 252.9 57.3 Z M 30.8 11.2 L 30.8 57.3 A 19.481 19.481 0 0 0 30.855 58.821 Q 30.997 60.622 31.5 61.7 A 3.205 3.205 0 0 0 32.842 63.129 Q 33.338 63.416 33.979 63.603 A 6.967 6.967 0 0 0 34.35 63.7 A 14.223 14.223 0 0 0 35.737 63.942 Q 37.112 64.119 39.037 64.175 A 64.811 64.811 0 0 0 40.9 64.2 A 0.133 0.133 0 0 1 41.015 64.272 Q 41.085 64.385 41.097 64.673 A 3.028 3.028 0 0 1 41.1 64.8 Q 41.1 65.245 40.99 65.36 A 0.121 0.121 0 0 1 40.9 65.4 A 161.164 161.164 0 0 1 38.229 65.377 Q 36.726 65.352 35.05 65.3 Q 31.8 65.2 28 65.2 Q 24.4 65.2 21.15 65.3 Q 17.9 65.4 15.2 65.4 A 0.133 0.133 0 0 1 15.085 65.328 Q 15.015 65.215 15.003 64.927 A 3.028 3.028 0 0 1 15 64.8 Q 15 64.356 15.11 64.24 A 0.121 0.121 0 0 1 15.2 64.2 A 59.697 59.697 0 0 0 17.453 64.16 Q 19.494 64.083 20.899 63.854 A 13.181 13.181 0 0 0 21.7 63.7 Q 23.9 63.2 24.65 61.7 Q 25.4 60.2 25.4 57.3 L 25.4 11 Q 25.4 8.489 24.907 7.117 A 3.879 3.879 0 0 0 24.6 6.45 Q 23.8 5.1 21.4 4.85 Q 19.563 4.659 16.377 4.614 A 147.903 147.903 0 0 0 14.3 4.6 A 20.971 20.971 0 0 0 11.029 4.837 Q 7.198 5.444 5.15 7.6 A 10.176 10.176 0 0 0 3.477 10.057 Q 1.941 13.112 1.2 18.3 A 0.133 0.133 0 0 1 1.128 18.415 Q 1.015 18.485 0.727 18.498 A 3.028 3.028 0 0 1 0.6 18.5 Q 0.156 18.5 0.04 18.39 A 0.121 0.121 0 0 1 0 18.3 Q 0.153 17.381 0.336 15.818 A 130.25 130.25 0 0 0 0.45 14.8 Q 0.7 12.5 0.9 9.85 Q 1.1 7.2 1.25 4.75 Q 1.393 2.422 1.4 0.862 A 35.512 35.512 0 0 0 1.4 0.7 A 0.589 0.589 0 0 1 1.436 0.484 Q 1.537 0.227 1.917 0.203 A 1.292 1.292 0 0 1 2 0.2 A 1.052 1.052 0 0 1 2.223 0.221 Q 2.544 0.291 2.592 0.59 A 0.702 0.702 0 0 1 2.6 0.7 Q 2.6 1.552 3.29 2.005 A 2.154 2.154 0 0 0 3.55 2.15 A 6.3 6.3 0 0 0 4.714 2.561 A 8.312 8.312 0 0 0 5.75 2.75 A 24.986 24.986 0 0 0 6.638 2.841 Q 7.075 2.878 7.459 2.892 A 12.347 12.347 0 0 0 7.9 2.9 A 443.273 443.273 0 0 0 14.758 3.083 Q 17.785 3.141 21.096 3.171 A 781.199 781.199 0 0 0 28 3.2 Q 35.1 3.2 39.25 3.05 A 225.657 225.657 0 0 1 46.321 2.902 A 205.262 205.262 0 0 1 47.3 2.9 A 39.193 39.193 0 0 0 49.199 2.857 Q 50.963 2.771 52.172 2.513 A 10.011 10.011 0 0 0 52.45 2.45 A 3.951 3.951 0 0 0 53.497 2.044 A 2.79 2.79 0 0 0 54.8 0.4 Q 54.897 0.01 55.375 0 A 1.213 1.213 0 0 1 55.4 0 A 0.917 0.917 0 0 1 55.582 0.017 Q 55.864 0.074 55.896 0.331 A 0.56 0.56 0 0 1 55.9 0.4 Q 55.823 1.548 55.688 3.283 A 545.895 545.895 0 0 1 55.6 4.4 A 116.988 116.988 0 0 0 55.356 8.291 A 134.306 134.306 0 0 0 55.3 9.65 Q 55.2 12.4 55.1 14.75 Q 55.023 16.549 55.005 17.674 A 39.537 39.537 0 0 0 55 18.3 A 0.133 0.133 0 0 1 54.928 18.415 Q 54.815 18.485 54.527 18.498 A 3.028 3.028 0 0 1 54.4 18.5 Q 53.956 18.5 53.84 18.39 A 0.121 0.121 0 0 1 53.8 18.3 Q 53.8 12.143 52.138 8.991 A 7.344 7.344 0 0 0 51.2 7.6 Q 48.6 4.6 41.7 4.6 Q 37 4.6 34.65 4.95 A 7.232 7.232 0 0 0 33.514 5.207 Q 32.929 5.394 32.492 5.673 A 2.734 2.734 0 0 0 31.55 6.65 A 4.41 4.41 0 0 0 31.175 7.6 Q 30.895 8.598 30.824 10.111 A 23.276 23.276 0 0 0 30.8 11.2 Z M 87 34.9 L 74.5 68.2 A 153.26 153.26 0 0 1 72.279 73.805 Q 69.871 79.529 67.604 83.343 A 46.71 46.71 0 0 1 67.6 83.35 A 36.141 36.141 0 0 1 65.407 86.642 Q 64.236 88.196 63.034 89.359 A 15.141 15.141 0 0 1 60.75 91.2 A 14.39 14.39 0 0 1 53.12 93.495 A 17.353 17.353 0 0 1 52.7 93.5 A 6.81 6.81 0 0 1 50.808 93.246 A 5.787 5.787 0 0 1 49.35 92.6 A 2.925 2.925 0 0 1 47.951 90.477 A 4.319 4.319 0 0 1 47.9 89.8 Q 47.9 88.6 48.75 87.95 A 3.167 3.167 0 0 1 49.752 87.425 A 2.89 2.89 0 0 1 50.6 87.3 A 14.452 14.452 0 0 1 50.631 87.3 Q 52.498 87.304 53.531 87.791 A 3.156 3.156 0 0 1 53.65 87.85 A 28.568 28.568 0 0 1 55.646 88.998 A 45.106 45.106 0 0 1 55.65 89 A 3.513 3.513 0 0 0 56.606 89.41 Q 57.3 89.6 58.2 89.6 Q 60.506 89.6 62.642 87.643 A 11.353 11.353 0 0 0 63 87.3 A 14.663 14.663 0 0 0 64.396 85.652 Q 65.773 83.791 67.265 80.881 A 62.89 62.89 0 0 0 67.95 79.5 Q 70.6 74 74.2 64.5 L 74.2 66.7 L 58.7 35.1 A 74.359 74.359 0 0 0 57.721 33.205 Q 56.317 30.588 55.392 29.509 A 5.596 5.596 0 0 0 55.25 29.35 A 4.085 4.085 0 0 0 52.277 28.003 A 5.223 5.223 0 0 0 52.1 28 A 0.133 0.133 0 0 1 51.985 27.928 Q 51.915 27.815 51.903 27.527 A 3.028 3.028 0 0 1 51.9 27.4 Q 51.9 26.956 52.01 26.84 A 0.121 0.121 0 0 1 52.1 26.8 A 49.112 49.112 0 0 1 54.802 26.877 A 54.26 54.26 0 0 1 55.2 26.9 A 50.352 50.352 0 0 0 57.923 26.998 A 45.569 45.569 0 0 0 58.3 27 A 174.778 174.778 0 0 0 60.956 26.981 Q 62.168 26.962 63.246 26.926 A 98.167 98.167 0 0 0 63.95 26.9 Q 66.4 26.8 68.4 26.8 A 0.133 0.133 0 0 1 68.515 26.872 Q 68.585 26.985 68.597 27.273 A 3.028 3.028 0 0 1 68.6 27.4 Q 68.6 27.845 68.49 27.96 A 0.121 0.121 0 0 1 68.4 28 Q 66.309 28 64.787 28.364 A 8.131 8.131 0 0 0 63.45 28.8 A 2.369 2.369 0 0 0 62.886 29.134 Q 61.825 30.003 62.781 31.864 A 6.617 6.617 0 0 0 62.8 31.9 L 76.8 60.6 L 74.8 64.3 L 84.9 35.3 A 18.208 18.208 0 0 0 85.267 34.097 Q 86.17 30.692 84.8 29.45 Q 83.314 28.103 78.375 28.007 A 40.047 40.047 0 0 0 77.6 28 A 0.133 0.133 0 0 1 77.485 27.928 Q 77.415 27.815 77.403 27.527 A 3.028 3.028 0 0 1 77.4 27.4 Q 77.4 26.956 77.51 26.84 A 0.121 0.121 0 0 1 77.6 26.8 Q 80 26.8 82.15 26.9 Q 84.073 26.989 86.997 26.999 A 217.986 217.986 0 0 0 87.7 27 Q 89.579 27 90.817 26.92 A 23.194 23.194 0 0 0 91.1 26.9 A 30.205 30.205 0 0 1 92.145 26.839 Q 92.726 26.815 93.384 26.806 A 58.663 58.663 0 0 1 94.2 26.8 Q 94.466 26.8 94.496 27.273 A 2.02 2.02 0 0 1 94.5 27.4 Q 94.5 28 94.2 28 Q 91.9 28 90.2 29.4 A 6.088 6.088 0 0 0 89.208 30.469 Q 88.315 31.668 87.481 33.667 A 29.79 29.79 0 0 0 87 34.9 Z M 107.4 61.9 L 108.3 56.6 Q 111.2 60.1 114.7 62.4 A 12.992 12.992 0 0 0 118.571 64.079 Q 120.939 64.7 123.9 64.7 A 10.582 10.582 0 0 0 131.776 61.245 A 15.399 15.399 0 0 0 132.85 60 A 15.968 15.968 0 0 0 135.5 54.703 Q 136.172 52.446 136.392 49.745 A 33.765 33.765 0 0 0 136.5 47 A 32.92 32.92 0 0 0 136.129 41.882 Q 135.304 36.656 132.65 33.45 A 13.607 13.607 0 0 0 129.233 30.439 A 11.423 11.423 0 0 0 123.2 28.8 A 13.738 13.738 0 0 0 117.895 29.809 A 13.029 13.029 0 0 0 115.1 31.4 A 46.008 46.008 0 0 0 110.382 35.448 A 54.728 54.728 0 0 0 108.3 37.6 L 107.5 36.9 A 57.217 57.217 0 0 1 111.191 32.992 Q 114.326 29.99 117.3 28.25 A 20.74 20.74 0 0 1 122.173 26.145 A 17.067 17.067 0 0 1 126.8 25.5 Q 130.9 25.5 134.35 27.65 Q 137.8 29.8 139.9 33.9 Q 141.857 37.721 141.99 43.105 A 32.136 32.136 0 0 1 142 43.9 A 28.699 28.699 0 0 1 141.612 48.742 Q 141.138 51.513 140.083 53.813 A 17.547 17.547 0 0 1 139.9 54.2 A 22.015 22.015 0 0 1 136.798 58.957 A 19.159 19.159 0 0 1 134.45 61.25 Q 131.1 64 127.45 65.35 A 23.318 23.318 0 0 1 124.127 66.319 A 17.268 17.268 0 0 1 120.6 66.7 Q 116.8 66.7 113.85 65.7 Q 110.9 64.7 107.4 61.9 Z M 104.8 84.8 L 104.8 37.6 A 25.907 25.907 0 0 0 104.744 35.825 Q 104.624 34.092 104.252 32.976 A 5.223 5.223 0 0 0 104 32.35 A 2.74 2.74 0 0 0 102.055 30.8 A 4.292 4.292 0 0 0 101.1 30.7 A 7.135 7.135 0 0 0 100.294 30.749 Q 99.575 30.831 98.7 31.05 Q 97.497 31.351 96.072 31.984 A 23.979 23.979 0 0 0 95.6 32.2 A 0.552 0.552 0 0 1 95.504 32.216 Q 95.169 32.239 94.95 31.8 Q 94.734 31.367 95.004 31.159 A 0.588 0.588 0 0 1 95.1 31.1 L 105.4 26.2 A 1.926 1.926 0 0 1 105.85 26.038 A 1.633 1.633 0 0 1 106.2 26 Q 107.6 26 108.55 28.25 Q 109.408 30.283 109.491 34.069 A 37.94 37.94 0 0 1 109.5 34.9 L 109.5 84.8 A 16.908 16.908 0 0 0 109.566 86.348 Q 109.723 88.045 110.25 89.1 A 3.37 3.37 0 0 0 111.519 90.457 Q 112.019 90.769 112.672 90.985 A 7.538 7.538 0 0 0 113.25 91.15 Q 115.5 91.7 119.8 91.7 A 0.133 0.133 0 0 1 119.915 91.772 Q 119.985 91.885 119.997 92.173 A 3.028 3.028 0 0 1 120 92.3 Q 120 92.745 119.89 92.86 A 0.121 0.121 0 0 1 119.8 92.9 Q 117.2 92.9 114 92.8 A 207.755 207.755 0 0 0 109.031 92.706 A 237.192 237.192 0 0 0 107.3 92.7 Q 104.8 92.7 102.4 92.8 A 137.537 137.537 0 0 1 100.698 92.861 Q 99.363 92.9 98.3 92.9 Q 98.034 92.9 98.004 92.427 A 2.02 2.02 0 0 1 98 92.3 Q 98 91.7 98.3 91.7 A 20.329 20.329 0 0 0 99.955 91.638 Q 102.646 91.417 103.589 90.412 A 2.089 2.089 0 0 0 103.6 90.4 A 3.145 3.145 0 0 0 104.18 89.431 Q 104.8 87.891 104.8 84.8 Z M 180.7 38 L 175.8 38 A 17.821 17.821 0 0 0 175.875 36.933 Q 176.011 33.501 174.647 31.357 A 6.433 6.433 0 0 0 173.95 30.45 A 7.736 7.736 0 0 0 169.498 28.07 A 11.261 11.261 0 0 0 167.5 27.9 Q 161.6 27.9 158.5 32.1 A 14.553 14.553 0 0 0 156.275 36.719 Q 155.687 38.736 155.494 41.149 A 30.772 30.772 0 0 0 155.4 43.6 Q 155.4 49.3 157.25 53.75 Q 159.1 58.2 162.7 60.8 A 13.697 13.697 0 0 0 169.253 63.284 A 17.673 17.673 0 0 0 171.3 63.4 A 18.237 18.237 0 0 0 175.759 62.831 A 20.915 20.915 0 0 0 176.6 62.6 A 15.964 15.964 0 0 0 181.389 60.228 A 18.159 18.159 0 0 0 181.7 60 Q 181.891 59.809 182.218 60.21 A 2.15 2.15 0 0 1 182.25 60.25 A 1.528 1.528 0 0 1 182.358 60.406 Q 182.473 60.6 182.473 60.762 A 0.42 0.42 0 0 1 182.4 61 A 27.389 27.389 0 0 1 179.108 63.439 A 20.199 20.199 0 0 1 175.35 65.3 Q 171.8 66.6 168.1 66.6 A 22.365 22.365 0 0 1 163.474 66.146 A 15.734 15.734 0 0 1 157.9 63.85 Q 153.8 61.1 151.75 56.7 Q 149.7 52.3 149.7 47.4 Q 149.7 41.3 152.5 36.45 Q 155.3 31.6 160.1 28.75 A 20.484 20.484 0 0 1 169.786 25.925 A 24.581 24.581 0 0 1 170.9 25.9 Q 176.2 25.9 179.05 28.55 Q 181.9 31.2 181.9 35.8 A 9.722 9.722 0 0 1 181.884 36.375 Q 181.844 37.055 181.7 37.45 Q 181.517 37.954 180.829 37.996 A 2.119 2.119 0 0 1 180.7 38 Z M 464.3 57.3 L 464.3 40.6 A 25.636 25.636 0 0 0 464.118 37.432 Q 463.654 33.713 462 31.7 A 7.194 7.194 0 0 0 458.501 29.408 Q 457.29 29.027 455.814 28.932 A 15.762 15.762 0 0 0 454.8 28.9 A 12.738 12.738 0 0 0 450.235 29.781 A 17.923 17.923 0 0 0 447.05 31.4 Q 443.1 33.9 440.2 38.3 L 439.8 37.1 A 55.138 55.138 0 0 1 442.913 33.329 Q 445.945 29.993 448.8 28.2 A 18.537 18.537 0 0 1 452.921 26.24 A 14.732 14.732 0 0 1 457.5 25.5 A 16.497 16.497 0 0 1 460.84 25.818 Q 463.984 26.468 466 28.45 A 9.05 9.05 0 0 1 468.153 31.93 Q 469 34.306 469 37.6 L 469 57.3 A 25.346 25.346 0 0 0 469.055 59.038 Q 469.252 61.884 470.15 62.9 A 2.697 2.697 0 0 0 471.07 63.543 Q 472.514 64.2 475.5 64.2 Q 475.766 64.2 475.796 64.673 A 2.02 2.02 0 0 1 475.8 64.8 Q 475.8 65.4 475.5 65.4 A 69.997 69.997 0 0 1 474.141 65.386 Q 473.539 65.374 472.879 65.353 A 126.562 126.562 0 0 1 471.5 65.3 A 107.265 107.265 0 0 0 467.938 65.206 A 121.29 121.29 0 0 0 466.7 65.2 A 115.458 115.458 0 0 0 462.44 65.277 A 105.326 105.326 0 0 0 461.85 65.3 A 130.3 130.3 0 0 1 460.179 65.361 Q 458.863 65.4 457.8 65.4 Q 457.534 65.4 457.504 64.927 A 2.02 2.02 0 0 1 457.5 64.8 Q 457.5 64.2 457.8 64.2 A 20.329 20.329 0 0 0 459.455 64.138 Q 462.146 63.917 463.089 62.912 A 2.089 2.089 0 0 0 463.1 62.9 A 3.145 3.145 0 0 0 463.68 61.931 Q 464.3 60.391 464.3 57.3 Z M 198.5 55 L 199.5 5.2 L 201.7 5.4 L 200.8 55 Q 200.7 60.1 202.45 62.15 A 4.693 4.693 0 0 0 204.128 63.359 Q 205.666 64.051 208.108 64.174 A 21.807 21.807 0 0 0 209.2 64.2 A 0.133 0.133 0 0 1 209.315 64.272 Q 209.385 64.385 209.397 64.673 A 3.028 3.028 0 0 1 209.4 64.8 Q 209.4 65.245 209.29 65.36 A 0.121 0.121 0 0 1 209.2 65.4 A 105.769 105.769 0 0 1 205.235 65.323 A 116.862 116.862 0 0 1 204.65 65.3 Q 202.3 65.2 199.5 65.2 A 104.755 104.755 0 0 0 196.013 65.256 A 92.004 92.004 0 0 0 194.9 65.3 A 96.166 96.166 0 0 1 191.745 65.393 A 83.135 83.135 0 0 1 190.7 65.4 A 0.133 0.133 0 0 1 190.585 65.328 Q 190.515 65.215 190.503 64.927 A 3.028 3.028 0 0 1 190.5 64.8 Q 190.5 64.356 190.61 64.24 A 0.121 0.121 0 0 1 190.7 64.2 A 13.516 13.516 0 0 0 192.814 64.047 Q 195.379 63.639 196.65 62.15 Q 198.4 60.1 198.5 55 Z M 326.8 58.6 L 326.8 34.8 Q 326.8 32.3 326.5 31.15 Q 326.2 30 325.1 29.65 A 5.431 5.431 0 0 0 324.378 29.481 Q 323.325 29.3 321.6 29.3 Q 321.334 29.3 321.304 28.827 A 2.02 2.02 0 0 1 321.3 28.7 Q 321.3 28.1 321.6 28.1 A 11.198 11.198 0 0 0 324.297 27.792 A 7.966 7.966 0 0 0 327.75 26 A 6.76 6.76 0 0 0 330.091 21.096 A 8.445 8.445 0 0 0 330.1 20.7 A 0.217 0.217 0 0 1 330.219 20.509 Q 330.382 20.41 330.767 20.401 A 3.439 3.439 0 0 1 330.85 20.4 A 2.865 2.865 0 0 1 331.086 20.409 Q 331.468 20.441 331.566 20.586 A 0.199 0.199 0 0 1 331.6 20.7 L 331.6 55.2 Q 331.6 57.921 332.46 59.739 A 6.057 6.057 0 0 0 333.65 61.45 A 6.507 6.507 0 0 0 336.33 63.034 Q 337.336 63.355 338.552 63.455 A 14.005 14.005 0 0 0 339.7 63.5 A 14.557 14.557 0 0 0 342.088 63.313 A 10.753 10.753 0 0 0 344.45 62.65 Q 346.5 61.8 347.8 60.8 A 0.626 0.626 0 0 1 347.913 60.756 Q 348.195 60.678 348.423 60.948 A 1.113 1.113 0 0 1 348.5 61.05 Q 348.792 61.488 348.42 61.785 A 0.893 0.893 0 0 1 348.4 61.8 Q 344.7 64.4 341.9 65.5 Q 339.1 66.6 336.1 66.6 Q 333.7 66.6 331.55 65.85 Q 329.4 65.1 328.1 63.35 A 6.098 6.098 0 0 1 327.146 61.361 Q 326.908 60.526 326.834 59.534 A 12.523 12.523 0 0 1 326.8 58.6 Z M 287.008 65.981 A 20.185 20.185 0 0 0 292.5 66.7 A 25.693 25.693 0 0 0 293.032 66.695 A 21.968 21.968 0 0 0 302.95 64.2 Q 307.7 61.7 310.6 57.1 A 18.158 18.158 0 0 0 312.905 51.53 A 23.665 23.665 0 0 0 313.5 46.1 Q 313.5 40.9 311.2 36.2 Q 308.9 31.5 304.6 28.5 A 16.084 16.084 0 0 0 299.551 26.159 A 20.065 20.065 0 0 0 294.3 25.5 A 21.869 21.869 0 0 0 292.607 25.566 A 24.217 24.217 0 0 0 287 26.7 Q 283.3 27.9 280.15 30.35 A 17.227 17.227 0 0 0 278.832 31.487 A 18.315 18.315 0 0 0 275.1 36.6 A 17.446 17.446 0 0 0 273.564 41.318 A 24.012 24.012 0 0 0 273.2 45.6 Q 273.2 51.2 275.55 56.05 Q 277.9 60.9 282.25 63.8 A 16.663 16.663 0 0 0 287.008 65.981 Z M 396.108 65.981 A 20.185 20.185 0 0 0 401.6 66.7 A 25.693 25.693 0 0 0 402.132 66.695 A 21.968 21.968 0 0 0 412.05 64.2 Q 416.8 61.7 419.7 57.1 A 18.158 18.158 0 0 0 422.005 51.53 A 23.665 23.665 0 0 0 422.6 46.1 Q 422.6 40.9 420.3 36.2 Q 418 31.5 413.7 28.5 A 16.084 16.084 0 0 0 408.651 26.159 A 20.065 20.065 0 0 0 403.4 25.5 A 21.869 21.869 0 0 0 401.707 25.566 A 24.217 24.217 0 0 0 396.1 26.7 Q 392.4 27.9 389.25 30.35 A 17.227 17.227 0 0 0 387.932 31.487 A 18.315 18.315 0 0 0 384.2 36.6 A 17.446 17.446 0 0 0 382.664 41.318 A 24.012 24.012 0 0 0 382.3 45.6 Q 382.3 51.2 384.65 56.05 Q 387 60.9 391.35 63.8 A 16.663 16.663 0 0 0 396.108 65.981 Z M 437.4 57.3 L 437.4 37.3 Q 437.4 34.485 436.852 32.938 A 4.725 4.725 0 0 0 436.6 32.35 A 2.696 2.696 0 0 0 434.672 30.885 A 4.214 4.214 0 0 0 433.8 30.8 A 6.255 6.255 0 0 0 432.994 30.856 Q 432.275 30.95 431.4 31.2 Q 430 31.6 428.2 32.3 A 0.552 0.552 0 0 1 428.104 32.316 Q 427.769 32.339 427.55 31.9 Q 427.334 31.467 427.604 31.259 A 0.588 0.588 0 0 1 427.7 31.2 L 438.8 26 A 0.881 0.881 0 0 1 439.009 25.928 Q 439.108 25.907 439.221 25.902 A 1.684 1.684 0 0 1 439.3 25.9 A 0.71 0.71 0 0 1 439.697 26.045 Q 440.279 26.445 441.05 27.95 A 7.847 7.847 0 0 1 441.648 29.578 Q 442.1 31.341 442.1 33.9 L 442.1 57.3 A 25.346 25.346 0 0 0 442.155 59.038 Q 442.352 61.884 443.25 62.9 A 2.697 2.697 0 0 0 444.17 63.543 Q 445.614 64.2 448.6 64.2 Q 448.866 64.2 448.896 64.673 A 2.02 2.02 0 0 1 448.9 64.8 Q 448.9 65.4 448.6 65.4 A 69.997 69.997 0 0 1 447.241 65.386 Q 446.639 65.374 445.979 65.353 A 126.562 126.562 0 0 1 444.6 65.3 A 107.265 107.265 0 0 0 441.038 65.206 A 121.286 121.286 0 0 0 439.8 65.2 A 115.458 115.458 0 0 0 435.54 65.277 A 105.326 105.326 0 0 0 434.95 65.3 A 130.3 130.3 0 0 1 433.279 65.361 Q 431.963 65.4 430.9 65.4 Q 430.634 65.4 430.604 64.927 A 2.02 2.02 0 0 1 430.6 64.8 Q 430.6 64.2 430.9 64.2 A 20.329 20.329 0 0 0 432.555 64.138 Q 435.246 63.917 436.189 62.912 A 2.089 2.089 0 0 0 436.2 62.9 A 3.145 3.145 0 0 0 436.78 61.931 Q 437.4 60.391 437.4 57.3 Z M 363.4 57.3 L 363.4 38.4 A 30.002 30.002 0 0 0 363.356 36.722 Q 363.262 35.042 362.963 33.93 A 5.952 5.952 0 0 0 362.7 33.15 A 2.824 2.824 0 0 0 362.059 32.194 Q 361.52 31.679 360.702 31.546 A 3.755 3.755 0 0 0 360.1 31.5 Q 359.331 31.5 358.378 31.756 A 10.365 10.365 0 0 0 358.05 31.85 Q 357.216 32.104 356.146 32.594 A 27.571 27.571 0 0 0 355.3 33 A 0.509 0.509 0 0 1 355.21 33.014 Q 354.946 33.032 354.753 32.74 A 1.386 1.386 0 0 1 354.65 32.55 A 1.368 1.368 0 0 1 354.599 32.423 Q 354.448 31.976 354.8 31.8 L 367.2 26 A 4.973 4.973 0 0 1 367.322 25.961 Q 367.488 25.91 367.57 25.902 A 0.29 0.29 0 0 1 367.6 25.9 Q 367.8 25.9 368.049 26.099 A 1.584 1.584 0 0 1 368.05 26.1 A 0.703 0.703 0 0 1 368.212 26.279 A 0.599 0.599 0 0 1 368.3 26.6 A 22.612 22.612 0 0 1 368.296 26.949 Q 368.281 27.891 368.2 30.45 A 159.122 159.122 0 0 0 368.156 32.122 Q 368.1 34.775 368.1 38.3 L 368.1 57.3 A 25.346 25.346 0 0 0 368.155 59.038 Q 368.352 61.884 369.25 62.9 A 2.697 2.697 0 0 0 370.17 63.543 Q 371.614 64.2 374.6 64.2 Q 374.866 64.2 374.896 64.673 A 2.02 2.02 0 0 1 374.9 64.8 Q 374.9 65.4 374.6 65.4 A 69.997 69.997 0 0 1 373.241 65.386 Q 372.639 65.374 371.979 65.353 A 126.562 126.562 0 0 1 370.6 65.3 A 105.606 105.606 0 0 0 367.608 65.214 A 126.611 126.611 0 0 0 365.7 65.2 A 114.106 114.106 0 0 0 362.063 65.256 A 100.756 100.756 0 0 0 360.9 65.3 A 116.958 116.958 0 0 1 358.983 65.368 Q 358.105 65.392 357.316 65.398 A 68.665 68.665 0 0 1 356.8 65.4 A 0.133 0.133 0 0 1 356.685 65.328 Q 356.615 65.215 356.603 64.927 A 3.028 3.028 0 0 1 356.6 64.8 Q 356.6 64.356 356.71 64.24 A 0.121 0.121 0 0 1 356.8 64.2 A 20.418 20.418 0 0 0 358.457 64.138 Q 360.166 63.998 361.187 63.544 A 3.02 3.02 0 0 0 362.15 62.9 A 3.124 3.124 0 0 0 362.754 61.931 Q 363.393 60.406 363.4 57.363 A 29.312 29.312 0 0 0 363.4 57.3 Z M 295.3 64.9 A 13.534 13.534 0 0 0 299.482 64.283 A 10.958 10.958 0 0 0 304.3 61.15 A 10.887 10.887 0 0 0 306.355 57.685 Q 307.566 54.522 307.687 49.771 A 42.194 42.194 0 0 0 307.7 48.7 A 30.364 30.364 0 0 0 307.142 42.755 A 24.063 24.063 0 0 0 305.6 37.8 A 20.289 20.289 0 0 0 302.903 33.264 A 17.094 17.094 0 0 0 299.75 30.2 A 14.093 14.093 0 0 0 291.62 27.411 A 17.451 17.451 0 0 0 291 27.4 A 13.167 13.167 0 0 0 287.086 27.953 A 10.17 10.17 0 0 0 282.1 31.35 Q 279.572 34.47 279.041 39.743 A 29.54 29.54 0 0 0 278.9 42.7 A 29.949 29.949 0 0 0 280.102 51.265 A 27.527 27.527 0 0 0 280.95 53.7 Q 283 58.8 286.7 61.85 Q 290.4 64.9 295.3 64.9 Z M 404.4 64.9 A 13.534 13.534 0 0 0 408.582 64.283 A 10.958 10.958 0 0 0 413.4 61.15 A 10.887 10.887 0 0 0 415.455 57.685 Q 416.666 54.522 416.787 49.771 A 42.194 42.194 0 0 0 416.8 48.7 A 30.364 30.364 0 0 0 416.242 42.755 A 24.063 24.063 0 0 0 414.7 37.8 A 20.289 20.289 0 0 0 412.003 33.264 A 17.094 17.094 0 0 0 408.85 30.2 A 14.093 14.093 0 0 0 400.72 27.411 A 17.451 17.451 0 0 0 400.1 27.4 A 13.167 13.167 0 0 0 396.186 27.953 A 10.17 10.17 0 0 0 391.2 31.35 Q 388.672 34.47 388.141 39.743 A 29.54 29.54 0 0 0 388 42.7 A 29.949 29.949 0 0 0 389.202 51.265 A 27.527 27.527 0 0 0 390.05 53.7 Q 392.1 58.8 395.8 61.85 Q 399.5 64.9 404.4 64.9 Z M 177 38 L 154.1 38.1 L 154 37 L 177 36.5 L 177 38 Z M 330.4 30.1 L 330.4 28 A 93.285 93.285 0 0 0 337.034 27.77 A 84.939 84.939 0 0 0 337.95 27.7 Q 341.6 27.4 345.7 27 Q 345.94 27 346.116 27.415 A 2.455 2.455 0 0 1 346.2 27.65 Q 346.4 28.3 346.4 29.3 Q 346.4 30 346.1 30.85 Q 345.832 31.611 345.483 31.611 A 0.342 0.342 0 0 1 345.4 31.6 A 44.934 44.934 0 0 0 340.662 30.643 A 37.364 37.364 0 0 0 337.95 30.35 A 100.844 100.844 0 0 0 333.337 30.135 A 120.086 120.086 0 0 0 330.4 30.1 Z M 363.719 13.687 A 5.798 5.798 0 0 0 364.9 13.8 Q 367.854 13.8 368.512 11.504 A 5.47 5.47 0 0 0 368.7 10 Q 368.7 8.2 367.7 7.2 A 3.097 3.097 0 0 0 367.371 6.914 Q 366.805 6.489 366.037 6.317 A 5.203 5.203 0 0 0 364.9 6.2 A 6.842 6.842 0 0 0 364.599 6.207 Q 362.915 6.281 361.95 7.2 A 3.27 3.27 0 0 0 361.024 8.857 A 4.959 4.959 0 0 0 360.9 10 A 4.959 4.959 0 0 0 361.024 11.143 A 3.27 3.27 0 0 0 361.95 12.8 A 3.21 3.21 0 0 0 362.448 13.188 Q 362.999 13.537 363.719 13.687 Z"
      vector-effect="non-scaling-stroke" />
  </g>
</svg>
